# Wavefront OBJ file
# Exported by Misfit Model 3D 1.3.8
# Thu Jan 17 23:50:07 2019

mtllib rist.mtl

# 24 Vertices
v -8.207341 -4.269137 -24.109193
v 7.755012 -4.269137 -24.109193
v 7.755012 -4.269138 -8.184488
v -8.207341 -4.269138 -8.184488
v -24.370476 -4.269138 -8.184488
v -24.370476 -4.269138 7.777866
v -8.207341 -4.269138 7.777866
v 7.755012 -4.269138 7.777866
v 23.817756 -4.269138 7.777866
v 23.817756 -4.269138 -8.184488
v -8.207341 -4.26914 60.822573
v 7.755012 -4.26914 60.822573
v -8.207245 4.269228 -24.109193
v 7.755107 4.269228 -24.109193
v 7.755107 4.269227 -8.184488
v -8.207245 4.269227 -8.184488
v -24.370381 4.269227 -8.184488
v -24.370381 4.269227 7.777866
v -8.207245 4.269227 7.777866
v 7.755107 4.269227 7.777866
v 23.817851 4.269227 7.777866
v 23.817851 4.269227 -8.184488
v -8.207245 4.269226 60.822573
v 7.755107 4.269226 60.822573

# 132 Texture Coordinates
vt 0.322933 0.64512
vt 0.493576 0.758038
vt 0.322933 0.758038
vt 0.322933 0.64512
vt 0.493576 0.64512
vt 0.493576 0.758038
vt 0.322933 0.64512
vt 0.150143 0.64512
vt 0.150143 0.531934
vt 0.322933 0.64512
vt 0.150143 0.531934
vt 0.322933 0.531934
vt 0.493576 0.64512
vt 0.493576 0.531934
vt 0.665293 0.531934
vt 0.493576 0.64512
vt 0.665293 0.531934
vt 0.665293 0.64512
vt 0.322933 0.64512
vt 0.322933 0.531934
vt 0.493576 0.531934
vt 0.493576 0.64512
vt 0.322933 0.64512
vt 0.493576 0.531934
vt 0.322933 0.155807
vt 0.493576 0.531934
vt 0.322933 0.531934
vt 0.493576 0.531934
vt 0.322933 0.155807
vt 0.493576 0.155807
vt 0.248193 0.155807
vt 0.248194 0.447343
vt 0.364611 0.447343
vt 0.364611 0.447343
vt 0.364611 0.155807
vt 0.248193 0.155807
vt 0.559375 0.184136
vt 0.559375 0.315342
vt 0.675386 0.315342
vt 0.675386 0.315342
vt 0.675386 0.184136
vt 0.559375 0.184136
vt 0.675386 0.184136
vt 0.675386 0.315342
vt 0.559375 0.315342
vt 0.559375 0.315342
vt 0.559375 0.184136
vt 0.675386 0.184136
vt 0.130312 0.155807
vt 0.130312 0.447343
vt 0.248194 0.447343
vt 0.248194 0.447343
vt 0.248193 0.155807
vt 0.130312 0.155807
vt 0.443089 0.184136
vt 0.443089 0.315342
vt 0.559375 0.315342
vt 0.559375 0.315342
vt 0.559375 0.184136
vt 0.443089 0.184136
vt 0.248193 0.155807
vt 0.248194 0.447343
vt 0.130312 0.447343
vt 0.130312 0.447343
vt 0.130312 0.155807
vt 0.248193 0.155807
vt 0.48176 0.155807
vt 0.481761 0.447343
vt 0.364611 0.447343
vt 0.364611 0.447343
vt 0.364611 0.155807
vt 0.48176 0.155807
vt 0.559375 0.184136
vt 0.559375 0.315342
vt 0.443089 0.315342
vt 0.443089 0.315342
vt 0.443089 0.184136
vt 0.559375 0.184136
vt 0.364611 0.155807
vt 0.364611 0.447343
vt 0.481761 0.447343
vt 0.481761 0.447343
vt 0.48176 0.155807
vt 0.364611 0.155807
vt 0.056657 0.184136
vt 0.056657 0.315342
vt 0.443089 0.315342
vt 0.443089 0.315342
vt 0.443089 0.184136
vt 0.056657 0.184136
vt 0.364611 0.155807
vt 0.364611 0.447343
vt 0.248194 0.447343
vt 0.248194 0.447343
vt 0.248193 0.155807
vt 0.364611 0.155807
vt 0.443089 0.184136
vt 0.443089 0.315342
vt 0.056657 0.315342
vt 0.056657 0.315342
vt 0.056657 0.184136
vt 0.443089 0.184136
vt 0.322932 0.758038
vt 0.493575 0.758038
vt 0.322932 0.64512
vt 0.493575 0.758038
vt 0.493575 0.64512
vt 0.322932 0.64512
vt 0.150142 0.531934
vt 0.150142 0.64512
vt 0.322932 0.64512
vt 0.322932 0.531934
vt 0.150142 0.531934
vt 0.322932 0.64512
vt 0.665292 0.531934
vt 0.493575 0.531934
vt 0.493575 0.64512
vt 0.665292 0.64512
vt 0.665292 0.531934
vt 0.493575 0.64512
vt 0.493575 0.531934
vt 0.322932 0.531934
vt 0.322932 0.64512
vt 0.493575 0.531934
vt 0.322932 0.64512
vt 0.493575 0.64512
vt 0.322932 0.531934
vt 0.493575 0.531934
vt 0.322932 0.155807
vt 0.493575 0.155807
vt 0.322932 0.155807
vt 0.493575 0.531934

# 132 Vertex Normals
vn -0.0 1.0 0.0
vn -0.0 1.0 0.0
vn -0.0 1.0 0.0
vn -0.0 1.0 0.0
vn 0.0 1.0 0.0
vn -0.0 1.0 0.0
vn -0.0 1.0 0.0
vn -0.0 1.0 0.0
vn -0.0 1.0 0.0
vn -0.0 1.0 0.0
vn -0.0 1.0 0.0
vn 0.0 1.0 0.0
vn 0.0 1.0 0.0
vn 0.0 1.0 0.0
vn 0.0 1.0 0.0
vn 0.0 1.0 0.0
vn 0.0 1.0 0.0
vn 0.0 1.0 0.0
vn -0.0 1.0 0.0
vn 0.0 1.0 0.0
vn 0.0 1.0 0.0
vn 0.0 1.0 0.0
vn -0.0 1.0 0.0
vn 0.0 1.0 0.0
vn -0.0 1.0 0.0
vn 0.0 1.0 0.0
vn 0.0 1.0 0.0
vn 0.0 1.0 0.0
vn -0.0 1.0 0.0
vn -0.0 1.0 0.0
vn 0.0 0.0 -1.0
vn 0.0 -0.0 -1.0
vn 0.0 0.0 -1.0
vn 0.0 0.0 -1.0
vn 0.0 0.0 -1.0
vn 0.0 0.0 -1.0
vn -1.0 0.000011 0.0
vn -1.0 0.000011 0.0
vn -1.0 0.000011 0.0
vn -1.0 0.000011 0.0
vn -1.0 0.000011 0.0
vn -1.0 0.000011 0.0
vn 1.0 -0.000011 0.0
vn 1.0 -0.000011 -0.0
vn 1.0 -0.000011 0.0
vn 1.0 -0.000011 0.0
vn 1.0 -0.000011 0.0
vn 1.0 -0.000011 0.0
vn 0.0 0.0 -1.0
vn 0.0 0.0 -1.0
vn 0.0 0.0 -1.0
vn 0.0 0.0 -1.0
vn 0.0 -0.0 -1.0
vn 0.0 0.0 -1.0
vn -1.0 0.000011 0.0
vn -1.0 0.000011 0.0
vn -1.0 0.000011 0.0
vn -1.0 0.000011 0.0
vn -1.0 0.000011 0.0
vn -1.0 0.000011 0.0
vn 0.0 -0.0 1.0
vn 0.0 -0.0 1.0
vn 0.0 -0.0 1.0
vn 0.0 -0.0 1.0
vn 0.0 0.0 1.0
vn 0.0 -0.0 1.0
vn 0.0 -0.0 1.0
vn 0.0 -0.0 1.0
vn 0.0 -0.0 1.0
vn 0.0 -0.0 1.0
vn 0.0 0.0 1.0
vn 0.0 -0.0 1.0
vn 1.0 -0.000011 -0.0
vn 1.0 -0.000011 0.0
vn 1.0 -0.000011 -0.0
vn 1.0 -0.000011 -0.0
vn 1.0 -0.000011 -0.0
vn 1.0 -0.000011 -0.0
vn 0.0 0.0 -1.0
vn 0.0 0.0 -1.0
vn 0.0 0.0 -1.0
vn 0.0 0.0 -1.0
vn 0.0 -0.0 -1.0
vn 0.0 0.0 -1.0
vn -1.0 0.000011 0.0
vn -1.0 0.000011 0.0
vn -1.0 0.000011 0.0
vn -1.0 0.000011 0.0
vn -1.0 0.000011 0.0
vn -1.0 0.000011 0.0
vn 0.0 0.0 1.0
vn 0.0 -0.0 1.0
vn 0.0 0.0 1.0
vn 0.0 0.0 1.0
vn 0.0 0.0 1.0
vn 0.0 0.0 1.0
vn 1.0 -0.000011 0.0
vn 1.0 -0.000011 -0.0
vn 1.0 -0.000011 0.0
vn 1.0 -0.000011 0.0
vn 1.0 -0.000011 0.0
vn 1.0 -0.000011 0.0
vn -0.0 -1.0 -0.0
vn -0.0 -1.0 -0.0
vn -0.0 -1.0 -0.0
vn -0.0 -1.0 -0.0
vn 0.0 -1.0 -0.0
vn -0.0 -1.0 -0.0
vn -0.0 -1.0 -0.0
vn -0.0 -1.0 -0.0
vn -0.0 -1.0 -0.0
vn 0.0 -1.0 -0.0
vn -0.0 -1.0 -0.0
vn -0.0 -1.0 -0.0
vn 0.0 -1.0 -0.0
vn 0.0 -1.0 -0.0
vn 0.0 -1.0 -0.0
vn 0.0 -1.0 -0.0
vn 0.0 -1.0 -0.0
vn 0.0 -1.0 -0.0
vn 0.0 -1.0 -0.0
vn 0.0 -1.0 -0.0
vn -0.0 -1.0 -0.0
vn 0.0 -1.0 -0.0
vn -0.0 -1.0 -0.0
vn 0.0 -1.0 -0.0
vn 0.0 -1.0 -0.0
vn 0.0 -1.0 -0.0
vn -0.0 -1.0 -0.0
vn -0.0 -1.0 -0.0
vn -0.0 -1.0 -0.0
vn 0.0 -1.0 -0.0

# x, 44 grouped triangles

usemtl x
o x
g x

f 16/1/1 14/2/2 13/3/3
f 16/4/4 15/5/5 14/6/6
f 16/7/7 17/8/8 18/9/9
f 16/10/10 18/11/11 19/12/12
f 15/13/13 20/14/14 21/15/15
f 15/16/16 21/17/17 22/18/18
f 16/19/19 19/20/20 20/21/21
f 15/22/22 16/23/23 20/24/24
f 23/25/25 20/26/26 19/27/27
f 20/28/28 23/29/29 24/30/30
f 1/31/31 13/32/32 14/33/33
f 14/34/34 2/35/35 1/36/36
f 4/37/37 16/38/38 13/39/39
f 13/40/40 1/41/41 4/42/42
f 2/43/43 14/44/44 15/45/45
f 15/46/46 3/47/47 2/48/48
f 5/49/49 17/50/50 16/51/51
f 16/52/52 4/53/53 5/54/54
f 6/55/55 18/56/56 17/57/57
f 17/58/58 5/59/59 6/60/60
f 7/61/61 19/62/62 18/63/63
f 18/64/64 6/65/65 7/66/66
f 9/67/67 21/68/68 20/69/69
f 20/70/70 8/71/71 9/72/72
f 10/73/73 22/74/74 21/75/75
f 21/76/76 9/77/77 10/78/78
f 3/79/79 15/80/80 22/81/81
f 22/82/82 10/83/83 3/84/84
f 11/85/85 23/86/86 19/87/87
f 19/88/88 7/89/89 11/90/90
f 12/91/91 24/92/92 23/93/93
f 23/94/94 11/95/95 12/96/96
f 8/97/97 20/98/98 24/99/99
f 24/100/100 12/101/101 8/102/102
f 1/103/103 2/104/104 4/105/105
f 2/106/106 3/107/107 4/108/108
f 6/109/109 5/110/110 4/111/111
f 7/112/112 6/113/113 4/114/114
f 9/115/115 8/116/116 3/117/117
f 10/118/118 9/119/119 3/120/120
f 8/121/121 7/122/122 4/123/123
f 8/124/124 4/125/125 3/126/126
f 7/127/127 8/128/128 11/129/129
f 12/130/130 11/131/131 8/132/132
